<?xml version="1.0" standalone="no"?>
<!DOCTYPE svg PUBLIC "-//W3C//DTD SVG 20010904//EN"
 "http://www.w3.org/TR/2001/REC-SVG-20010904/DTD/svg10.dtd">
<svg version="1.0" xmlns="http://www.w3.org/2000/svg"
 width="1280.000000pt" height="640.000000pt" viewBox="0 0 1280.000000 640.000000"
 preserveAspectRatio="xMidYMid meet">
<metadata>
Created by potrace 1.15, written by Peter Selinger 2001-2017
</metadata>
<g transform="translate(0.000000,640.000000) scale(0.100000,-0.100000)"
fill="#000000" stroke="none">
<path d="M36 6032 c-4 -41 -6 -75 -4 -77 2 -1 102 -8 222 -14 121 -6 222 -13
224 -16 2 -2 1 -18 -3 -35 l-7 -32 -82 6 c-44 3 -147 8 -227 12 l-146 6 -6
-38 c-4 -22 -7 -56 -7 -76 l0 -37 53 -5 c28 -3 255 -15 502 -26 248 -11 637
-29 865 -40 1427 -67 2185 -103 2186 -104 1 -1 -25 -173 -32 -213 -4 -22 -7
-23 -134 -23 l-130 0 0 -220 0 -220 -175 0 c-96 0 -175 2 -175 5 0 20 -41 456
-45 483 l-6 32 -388 0 -389 0 -5 -22 c-3 -13 -24 -122 -47 -243 -22 -121 -43
-228 -46 -237 -5 -17 -27 -18 -283 -18 l-278 0 -12 -27 c-7 -16 -139 -321
-292 -680 l-279 -652 0 -125 0 -126 -50 0 c-31 0 -66 -8 -89 -19 -38 -20 -101
-83 -101 -101 0 -5 -16 -16 -35 -24 -26 -11 -41 -27 -55 -58 -17 -38 -20 -66
-20 -226 0 -142 3 -191 15 -219 19 -46 43 -73 64 -74 9 0 30 -21 47 -47 39
-60 99 -92 171 -92 l53 0 0 -115 0 -115 -105 0 -105 0 0 -365 0 -365 105 0
105 0 0 -55 0 -55 526 0 526 0 -3 -78 -4 -77 327 -3 326 -2 7 -63 c39 -360
254 -647 577 -767 148 -55 348 -70 494 -37 311 68 566 299 662 597 25 79 42
169 42 227 l0 43 331 0 331 0 -4 80 -3 80 122 0 c103 0 123 2 123 15 0 13 41
15 305 15 264 0 305 -2 305 -15 0 -13 183 -15 1588 -15 l1589 0 -5 -80 -5 -80
330 0 330 0 7 -78 c27 -328 247 -621 560 -746 196 -78 433 -80 634 -6 313 117
530 394 572 733 l12 97 327 2 326 3 -4 77 -3 78 171 0 c161 0 171 1 171 19 0
16 6 18 38 14 53 -6 119 30 157 87 17 25 43 55 60 66 55 36 60 59 60 279 0
220 -5 243 -60 279 -17 11 -43 41 -60 66 -38 58 -104 94 -157 85 l-38 -5 0
639 0 640 -37 3 -38 3 -3 208 -2 207 35 0 35 0 0 100 c0 94 1 100 21 100 11 0
30 5 42 11 27 14 120 108 136 137 15 28 15 266 -1 295 -6 12 -37 48 -68 79
-41 40 -68 59 -94 63 l-36 7 0 79 0 79 -162 2 -163 3 -3 133 -3 132 68 -1 c37
0 174 -6 303 -13 129 -7 237 -11 240 -8 3 2 6 37 8 78 4 67 2 74 -14 74 -14 0
-587 29 -601 30 -7 0 -2 60 6 64 4 3 136 -1 292 -9 156 -8 299 -15 317 -15
l32 0 0 75 c0 41 -1 75 -2 76 -2 1 -156 9 -343 19 -321 16 -343 19 -395 42
-111 51 -137 53 -560 53 -288 0 -411 -4 -455 -13 -52 -12 -169 -8 -915 27
-470 23 -945 45 -1055 51 -110 6 -585 28 -1055 50 -470 22 -1136 54 -1480 70
-344 16 -915 43 -1270 60 -355 17 -1023 48 -1485 70 -1443 69 -1654 79 -2640
125 -528 24 -990 46 -1026 48 l-66 4 -7 -75z m1369 -145 l250 -12 3 -32 3 -33
-88 1 c-69 0 -590 25 -600 28 -2 1 -3 17 -3 36 l0 34 93 -5 c50 -3 205 -11
342 -17z m1225 -57 c330 -14 322 -13 318 -53 l-3 -32 -80 3 c-44 2 -215 10
-380 18 -165 7 -306 14 -312 14 -8 0 -13 14 -13 36 l0 37 108 -6 c59 -4 222
-11 362 -17z m1140 -55 c157 -8 302 -15 323 -15 36 0 37 -1 37 -35 0 -35 0
-35 -46 -35 -39 0 -53 6 -85 35 l-39 35 -119 0 c-113 0 -119 -1 -146 -26 -28
-26 -29 -26 -142 -19 l-113 7 0 27 c0 32 7 41 29 41 9 0 144 -7 301 -15z
m1265 -60 c154 -8 281 -15 283 -15 6 0 1 -59 -6 -64 -5 -3 -134 1 -288 9 -153
8 -305 15 -336 15 l-58 0 0 35 0 35 63 0 c34 0 188 -7 342 -15z m1160 -55
c132 -5 279 -13 327 -16 l87 -6 -6 -32 c-3 -17 -7 -32 -8 -33 -2 -3 -622 25
-712 33 -71 6 -73 6 -73 33 0 15 3 31 7 34 3 4 36 5 72 2 36 -3 174 -9 306
-15z m1345 -63 l245 -12 0 -35 c0 -34 -1 -35 -40 -32 -22 1 -152 6 -290 12
-137 6 -274 13 -302 16 -52 5 -53 6 -53 39 l0 33 98 -5 c53 -3 207 -10 342
-16z m1109 -53 c174 -8 319 -18 323 -22 3 -4 4 -19 1 -34 -4 -19 -12 -28 -25
-28 -89 0 -654 33 -660 38 -3 4 -4 19 -1 35 4 19 11 27 26 27 11 0 163 -7 336
-16z m-3419 -64 c586 -27 1157 -54 1270 -60 113 -6 779 -37 1480 -70 701 -33
1361 -64 1465 -69 105 -6 411 -20 680 -32 270 -12 493 -25 496 -28 4 -3 3 -16
-2 -28 l-8 -23 -431 0 -430 0 0 -145 0 -145 -1722 0 -1723 0 -237 -163 -237
-162 -1 -262 0 -263 -280 0 -280 0 0 113 0 112 -197 313 -198 312 -412 0 -413
0 0 328 0 327 57 -3 c32 -1 537 -25 1123 -52z m4675 5 c154 -8 297 -15 318
-15 36 0 37 -1 37 -37 l0 -36 -112 6 c-62 3 -240 12 -395 19 l-283 12 0 33 0
33 78 0 c42 0 203 -7 357 -15z"/>
</g>
</svg>
