<?xml version="1.0" encoding="utf-8"?>
<!-- Generator: Adobe Illustrator 27.5.0, SVG Export Plug-In . SVG Version: 6.00 Build 0)  -->
<svg version="1.1" xmlns="http://www.w3.org/2000/svg" xmlns:xlink="http://www.w3.org/1999/xlink" x="0px" y="0px"
	 viewBox="0 0 750 500" style="enable-background:new 0 0 750 500;" xml:space="preserve">
<g id="BACKGROUND">
	<rect style="fill-rule:evenodd;clip-rule:evenodd;fill:#FFFFFF;" width="750" height="500"/>
</g>
<g id="OBJECTS">
	<g>
		<g>
			<g>
				<path style="fill-rule:evenodd;clip-rule:evenodd;fill:#EAF3F2;" d="M118.597,292.272c18.791-1.308,34.854-23.174,35.735-36.087
					c0.707-10.374-12.161-22.445-33.933-17.68C90.147,245.125,90.384,294.233,118.597,292.272L118.597,292.272z M324.81,140.667
					c12.624-33.816-38.634-42.646-60.105-21.974C232.079,150.106,306.881,188.693,324.81,140.667L324.81,140.667z M577.963,208.439
					c30.217-24.959-17.826-75.353-49.857-55.362C486.023,179.34,535.052,243.883,577.963,208.439L577.963,208.439z M163.55,217.885
					c-0.4-9.742,1.69-18.643,5.65-26.378c15.07-29.432,57.226-41.965,92.295-19.569c26.923,17.194,54.386,10.762,71.888-12.553
					c24.973-33.266,44.729-46.169,68.959-48.54c25.571-2.502,55.317,6.932,69.778,24.599
					c51.496,62.912,10.736,116.012,89.184,94.877c58.042-15.638,106.305,15.915,123.348,62.93
					c23.245,64.122-5.115,152.982-86.298,152.982c-52.174,0-374.862,0-446.224,0c-39.757,0-68.144-47.009-64.241-91.682
					c3.168-36.267,40.887-48.609,60.99-72.012C166.265,262.298,164.635,244.256,163.55,217.885z"/>
			</g>
			<g>
				<g>
					<g>
						<path style="fill-rule:evenodd;clip-rule:evenodd;fill:#596A35;" d="M250.442,434.46c13.33,0,17.589-8.12,17.068-15.603
							c-0.48-6.886-5.866-11.883-12.695-13.784c0.198-0.904,0.304-1.843,0.304-2.808c0-7.203-5.839-13.042-13.042-13.042
							c-1.603,0-3.137,0.289-4.555,0.817c-0.113-5.362-4.495-9.675-9.884-9.675c-3.207,0-6.057,1.527-7.863,3.894
							c-3.917-5.583-10.402-9.233-17.739-9.233c-8.969,0-16.664,5.451-19.953,13.221c-4.675,0.718-8.27,4.71-8.372,9.56
							c-1.418-0.528-2.953-0.818-4.555-0.818c-7.203,0-13.042,5.84-13.042,13.042c0,1.979,0.441,3.855,1.23,5.536
							c-3.05,1.684-5.117,4.931-5.117,8.661c0,5.461,4.427,9.887,9.887,9.887C190.615,434.115,231.518,434.46,250.442,434.46z"/>
					</g>
				</g>
				<g>
					<g>
						<path style="fill-rule:evenodd;clip-rule:evenodd;fill:#78832C;" d="M231.359,434.46c-15.725,0-20.75-9.579-20.134-18.404
							c0.567-8.123,6.92-14.019,14.975-16.26c-0.234-1.067-0.358-2.175-0.358-3.313c0-8.497,6.888-15.385,15.385-15.385
							c1.89,0,3.701,0.341,5.373,0.964c0.133-6.325,5.303-11.412,11.66-11.412c3.783,0,7.145,1.801,9.276,4.592
							c4.621-6.585,12.27-10.892,20.926-10.892c10.58,0,19.656,6.431,23.537,15.596c5.514,0.846,9.755,5.556,9.875,11.277
							c1.673-0.623,3.483-0.964,5.373-0.964c8.497,0,15.386,6.887,15.386,15.385c0,2.334-0.521,4.547-1.451,6.529
							c3.598,1.985,6.035,5.816,6.035,10.217c0,6.441-5.222,11.663-11.664,11.663C301.932,434.054,253.682,434.46,231.359,434.46z"
							/>
					</g>
				</g>
				<g>
					<g>
						<g>
							<path style="fill-rule:evenodd;clip-rule:evenodd;fill:#596A35;" d="M146.586,434.46c8.033,0,10.6-4.894,10.286-9.402
								c-0.29-4.149-3.535-7.161-7.65-8.307c0.12-0.546,0.183-1.111,0.183-1.691c0-4.342-3.52-7.86-7.86-7.86
								c-0.965,0-1.89,0.174-2.745,0.492c-0.068-3.231-2.708-5.83-5.957-5.83c-1.933,0-3.65,0.92-4.738,2.346
								c-2.361-3.364-6.269-5.563-10.69-5.563c-5.405,0-10.042,3.284-12.024,7.967c-2.817,0.432-4.983,2.839-5.045,5.762
								c-0.855-0.318-1.779-0.494-2.745-0.494c-4.341,0-7.86,3.52-7.86,7.861c0,1.192,0.266,2.322,0.742,3.335
								c-1.838,1.015-3.084,2.973-3.084,5.221c0,3.29,2.668,5.957,5.959,5.957C110.534,434.252,135.183,434.46,146.586,434.46z"/>
						</g>
					</g>
					<g>
						<g>
							<path style="fill-rule:evenodd;clip-rule:evenodd;fill:#78832C;" d="M132.454,434.46c-8.033,0-10.601-4.894-10.286-9.402
								c0.29-4.149,3.535-7.161,7.65-8.307c-0.12-0.546-0.183-1.111-0.183-1.691c0-4.342,3.519-7.86,7.86-7.86
								c0.965,0,1.891,0.174,2.745,0.492c0.068-3.231,2.708-5.83,5.957-5.83c1.933,0,3.649,0.92,4.738,2.346
								c2.36-3.364,6.268-5.563,10.691-5.563c5.404,0,10.042,3.284,12.024,7.967c2.817,0.432,4.983,2.839,5.045,5.762
								c0.855-0.318,1.78-0.494,2.745-0.494c4.341,0,7.86,3.52,7.86,7.861c0,1.192-0.266,2.322-0.742,3.335
								c1.838,1.015,3.084,2.973,3.084,5.221c0,3.29-2.668,5.957-5.959,5.957C168.507,434.252,143.858,434.46,132.454,434.46z"/>
						</g>
					</g>
				</g>
			</g>
			<g>
				<g>
					<g>
						<path style="fill-rule:evenodd;clip-rule:evenodd;fill:#596A35;" d="M595.827,434.46c10.544,0,13.913-6.423,13.501-12.341
							c-0.38-5.446-4.64-9.4-10.042-10.903c0.157-0.715,0.24-1.457,0.24-2.22c0-5.697-4.619-10.316-10.315-10.316
							c-1.268,0-2.481,0.23-3.604,0.647c-0.089-4.242-3.556-7.653-7.818-7.653c-2.536,0-4.791,1.209-6.22,3.08
							c-3.099-4.415-8.227-7.304-14.03-7.304c-7.094,0-13.181,4.314-15.783,10.458c-3.697,0.567-6.541,3.726-6.622,7.562
							c-1.121-0.417-2.335-0.647-3.602-0.647c-5.699,0-10.316,4.619-10.316,10.316c0,1.564,0.35,3.049,0.973,4.378
							c-2.413,1.332-4.047,3.9-4.047,6.851c0,4.319,3.502,7.821,7.82,7.821C548.507,434.189,580.859,434.46,595.827,434.46z"/>
					</g>
				</g>
				<g>
					<g>
						<path style="fill-rule:evenodd;clip-rule:evenodd;fill:#78832C;" d="M566.202,434.46c-10.544,0-13.914-6.423-13.501-12.341
							c0.381-5.446,4.641-9.4,10.041-10.903c-0.156-0.715-0.24-1.457-0.24-2.22c0-5.697,4.619-10.316,10.316-10.316
							c1.268,0,2.481,0.23,3.604,0.647c0.089-4.242,3.555-7.653,7.818-7.653c2.536,0,4.79,1.209,6.219,3.08
							c3.1-4.415,8.227-7.304,14.032-7.304c7.094,0,13.18,4.314,15.781,10.458c3.698,0.567,6.542,3.726,6.622,7.562
							c1.122-0.417,2.336-0.647,3.603-0.647c5.698,0,10.317,4.619,10.317,10.316c0,1.564-0.35,3.049-0.974,4.378
							c2.412,1.332,4.047,3.9,4.047,6.851c0,4.319-3.501,7.821-7.82,7.821C613.522,434.189,581.17,434.46,566.202,434.46z"/>
					</g>
				</g>
				<g>
					<g>
						<g>
							<path style="fill-rule:evenodd;clip-rule:evenodd;fill:#596A35;" d="M430.188,434.46c-17.446,0-23.022-10.629-22.339-20.42
								c0.629-9.013,7.677-15.555,16.615-18.041c-0.259-1.184-0.397-2.413-0.397-3.675c0-9.429,7.643-17.07,17.069-17.07
								c2.097,0,4.105,0.379,5.962,1.07c0.147-7.018,5.883-12.663,12.937-12.663c4.198,0,7.928,1.999,10.293,5.095
								c5.126-7.306,13.612-12.084,23.216-12.084c11.739,0,21.81,7.135,26.116,17.304c6.118,0.939,10.823,6.165,10.957,12.514
								c1.856-0.692,3.863-1.071,5.961-1.071c9.428,0,17.07,7.642,17.07,17.069c0,2.591-0.578,5.046-1.61,7.245
								c3.992,2.203,6.696,6.454,6.696,11.336c0,7.148-5.794,12.941-12.94,12.941C508.489,434.01,454.956,434.46,430.188,434.46z"/>
						</g>
					</g>
					<g>
						<g>
							<path style="fill-rule:evenodd;clip-rule:evenodd;fill:#78832C;" d="M507.792,434.46c17.446,0,23.021-10.629,22.339-20.42
								c-0.628-9.013-7.678-15.555-16.616-18.041c0.261-1.184,0.398-2.413,0.398-3.675c0-9.429-7.643-17.07-17.071-17.07
								c-2.097,0-4.105,0.379-5.961,1.07c-0.147-7.018-5.883-12.663-12.938-12.663c-4.196,0-7.927,1.999-10.291,5.095
								c-5.127-7.306-13.613-12.084-23.218-12.084c-11.737,0-21.81,7.135-26.114,17.304c-6.119,0.939-10.824,6.165-10.958,12.514
								c-1.855-0.692-3.864-1.071-5.961-1.071c-9.429,0-17.07,7.642-17.07,17.069c0,2.591,0.577,5.046,1.609,7.245
								c-3.992,2.203-6.695,6.454-6.695,11.336c0,7.148,5.793,12.941,12.94,12.941C429.49,434.01,483.024,434.46,507.792,434.46z"/>
						</g>
					</g>
				</g>
			</g>
			<g>
				<g>
					<g>
						<g>
							<path style="fill-rule:evenodd;clip-rule:evenodd;fill:#FFFFFF;" d="M382.711,300.833c10.95-8.565,26.36-7.51,36.056,1.919
								c1.097-1.686,2.486-3.222,4.159-4.53c8.138-6.366,19.896-4.928,26.26,3.21c2.787,3.563,4.078,7.817,3.967,12.012
								c5.787,1.139,10.73,5.433,12.405,11.505c2.342,8.492-2.584,17.27-11.017,19.716c1.292,9.376-2.299,19.167-10.29,25.416
								c-10.607,8.297-25.401,7.566-35.13-1.059c-0.248,0.213-0.5,0.422-0.76,0.625c-8.85,6.922-21.634,5.358-28.556-3.491
								c-5.821-7.442-5.64-17.669-0.171-24.85c-0.569-0.604-1.117-1.24-1.639-1.907
								C368.648,327.447,370.759,310.181,382.711,300.833z"/>
						</g>
						<g>
							<path style="fill-rule:evenodd;clip-rule:evenodd;fill:#FFFFFF;" d="M490.369,284.53
								c-74.916,36.26-74.916,36.26-74.916,36.26l16.331,19.94l61.125-51.702L490.369,284.53z"/>
						</g>
					</g>
					<g>
						<g>
							<path style="fill-rule:evenodd;clip-rule:evenodd;fill:#C53224;" d="M451.639,351.839
								c-19.381-46.939-19.141-32.464-14.41-47.775c4.731-15.313-13.915-28.479-13.915-28.479s5.193,24.578-7.354,31.713
								c-12.547,7.136,6.258,21.643-0.928,35.444c-3.418,6.564-11.73,5.598-16.429-6.782c-4.927-12.986-1.469-31.367,5.091-40.183
								c12.813-17.22,10.946-32.152-2.247-48.262c-13.191-16.11-0.988-27.225-0.988-27.225s-28.097,17.178-11.923,38.025
								c16.174,20.844,1.572,22.597-1.577,22.036c-6.17-1.097-6.879-6.754-5.959-10.932c0.703-3.191,3.564-5.909-1.507-2.74
								c-4.715,2.948-10.498,10.143-8.161,15.816c3.972,9.643,9.25,17.319,4.271,22.742c-4.979,5.424-9.25,11.163-9.233,19.673
								c0.016,8.509-13.946-7.307-8.053-15.722c5.893-8.414,7.577-11.699,3.777-19.353c-3.801-7.653-10.326-20.14-7.374-26.258
								c2.952-6.118-12.083,9.894-5.251,25.494c6.832,15.601-17.317,15.415-11.569,38.183c5.749,22.767-9.048,24.006-14.986,13.058
								c-5.939-10.949,5.507-25.593,5.507-25.593s-11.842,1.287-17.294,13.939c-5.452,12.65-17.43,45.938,3.411,74.398
								c14.303,19.534,41.547,31.377,70.633,30.179C418.194,431.873,471.019,398.776,451.639,351.839z"/>
						</g>
						<g>
							<path style="fill-rule:evenodd;clip-rule:evenodd;fill:#D57B19;" d="M348.531,332.181
								c-3.968,11.695,2.714,19.213,2.714,28.401c0,9.188-3.968,17.958-12.738,13.781c-8.771-4.176-12.112-7.1-12.112-7.1
								c-9.464,35.488,24.529,57.829,56.185,55.476c18.076-1.343,41.488-9.395,45.517-31.174
								c2.121-11.465-4.389-16.675-4.389-25.556c0-12.111,6.056-15.453,6.056-15.453s-12.529-3.132-15.871,9.607
								c-3.771,14.382-18.36,13.705-20.375-12.923c-0.956-12.634-9.551-23.462-5.936-33.647
								c4.595-12.946,12.321-19.003,9.815-16.079c-2.507,2.924-22.971,13.364-22.554,34.665
								C375.468,364.081,354.403,347.157,348.531,332.181z"/>
						</g>
					</g>
					<g>
						<g>
							<g>
								<g>
									<path style="fill-rule:evenodd;clip-rule:evenodd;fill:#2D4D5F;" d="M86.028,406.702l-8.329,11.004l25.214,13.687
										c2.073-3.149,4.61-6.498,7.657-9.906c-0.53-0.406-1.09-0.816-1.686-1.231C104.857,417.455,90.955,404.241,86.028,406.702z"
										/>
								</g>
								<g>
									<path style="fill-rule:evenodd;clip-rule:evenodd;fill:#2D4D5F;" d="M103.358,430.724L79.27,417.272
										c-1.1-0.615-2.493-0.221-3.111,0.882c-0.618,1.105-0.227,2.498,0.873,3.114l23.882,13.337
										C101.649,433.351,102.462,432.054,103.358,430.724z"/>
								</g>
							</g>
							<g>
								<g>
									<path style="fill-rule:evenodd;clip-rule:evenodd;fill:#2D4D5F;" d="M98.129,430.779l21.138-0.148
										c0.043-1.534,4.156-13.164-18.717-9.936C99.248,424.328,98.489,427.715,98.129,430.779z"/>
								</g>
								<g>
									<path style="fill-rule:evenodd;clip-rule:evenodd;fill:#2D4D5F;" d="M117.317,434.568c1.637,0.003,2.968-1.02,2.971-2.285
										c0.003-1.265-1.322-2.292-2.959-2.294l-19.118-0.013c-0.175,1.598-1.635-0.215-1.676,1.239l4.258,3.345L117.317,434.568z"
										/>
								</g>
							</g>
						</g>
						<g>
							<g>
								<path style="fill-rule:evenodd;clip-rule:evenodd;fill:#2D4D5F;" d="M171.362,419.484l-2.002,12.176l40.954,1.484
									c0.068-1.764,0.515-9.652-14.778-11.881C191.102,420.617,174.275,415.537,171.362,419.484z"/>
							</g>
							<g>
								<path style="fill-rule:evenodd;clip-rule:evenodd;fill:#BC6F2F;" d="M191.041,419.903l-20.79-0.754l4.217-66.941
									l-34.4-46.561l-0.597-28.429l33.288,1.196l29.436,68.609c0,0,0.979,5.458-0.282,11.655
									C200.652,364.878,191.041,419.903,191.041,419.903z"/>
							</g>
							<g>
								<polygon style="fill-rule:evenodd;clip-rule:evenodd;fill:#FFEC00;" points="170.927,408.428 192.91,409.224 
									192.896,409.303 192.883,409.381 192.869,409.459 192.855,409.537 192.841,409.615 192.828,409.692 192.814,409.77 
									192.801,409.848 192.788,409.924 192.773,410.001 192.76,410.078 192.747,410.154 192.738,410.202 192.733,410.23 
									192.72,410.306 192.708,410.382 192.694,410.457 192.681,410.532 192.667,410.606 192.655,410.682 192.642,410.757 
									192.629,410.83 192.616,410.904 192.602,410.978 192.59,411.052 192.577,411.126 192.564,411.198 192.562,411.208 
									192.551,411.272 192.539,411.344 192.526,411.417 192.513,411.488 192.501,411.56 192.488,411.632 192.476,411.703 
									192.463,411.774 192.451,411.846 192.426,411.987 192.414,412.057 192.394,412.172 192.389,412.197 192.365,412.336 
									192.352,412.405 192.329,412.542 192.317,412.61 192.305,412.679 192.292,412.747 192.281,412.814 192.27,412.881 
									192.257,412.948 192.246,413.015 192.234,413.08 192.232,413.092 192.223,413.147 192.211,413.214 192.2,413.279 
									192.188,413.345 192.176,413.41 192.165,413.475 192.154,413.539 192.132,413.668 192.12,413.731 192.109,413.796 
									170.638,413.017 								"/>
							</g>
							<g>
								<polygon style="fill-rule:evenodd;clip-rule:evenodd;fill:#FFEC00;" points="171.474,399.738 194.429,400.57 
									194.416,400.645 194.403,400.718 194.39,400.792 194.377,400.865 194.37,400.904 194.364,400.94 194.351,401.014 
									194.338,401.087 194.325,401.16 194.313,401.233 194.299,401.307 194.287,401.38 194.274,401.453 194.261,401.525 
									194.248,401.599 194.235,401.672 194.223,401.745 194.21,401.817 194.197,401.891 194.184,401.963 194.171,402.034 
									194.159,402.107 194.148,402.166 194.146,402.18 194.133,402.252 194.121,402.324 194.108,402.397 194.095,402.468 
									194.083,402.54 194.07,402.612 194.057,402.684 194.045,402.755 194.033,402.827 194.02,402.898 194.007,402.97 
									193.995,403.042 193.982,403.112 193.97,403.184 193.957,403.256 193.945,403.326 193.932,403.397 193.931,403.403 
									193.92,403.468 193.907,403.539 193.895,403.61 193.883,403.68 193.87,403.75 193.858,403.82 193.846,403.892 
									193.833,403.962 193.821,404.032 193.808,404.102 193.796,404.172 193.784,404.241 193.772,404.31 193.76,404.382 
									193.747,404.451 193.735,404.521 193.723,404.59 193.718,404.615 193.711,404.659 193.699,404.728 193.686,404.798 
									193.674,404.866 193.662,404.935 193.65,405.004 193.638,405.073 193.626,405.142 171.185,404.329 								"/>
							</g>
							<g>
								<path style="fill-rule:evenodd;clip-rule:evenodd;fill:#A6491D;" d="M175.704,354.429c-0.703-0.449-0.895-1.364-0.431-2.043
									c0.464-0.68,1.41-0.865,2.112-0.416c2.092,1.338,4.086,2.499,5.783,3.487c0.874,0.509,1.669,0.973,2.377,1.401
									c0.714,0.431,0.932,1.34,0.486,2.03c-0.446,0.69-1.386,0.9-2.1,0.47c-0.669-0.405-1.462-0.867-2.332-1.374
									C179.87,356.978,177.835,355.793,175.704,354.429z"/>
							</g>
						</g>
						<g>
							<path style="fill-rule:evenodd;clip-rule:evenodd;fill:#BC6F2F;" d="M101.946,414.806l-17.931-8.49l4.244-7.583l32.06-52.306
								l0.454-63.5l3.821-18.665l39.419,13.252l-16.578,76.541c0,0-1.708,5.287-5.755,10.244
								c-3.235,3.964-25.94,33.315-34.931,44.944C105.239,411.195,103.706,413.049,101.946,414.806z"/>
						</g>
						<g>
							<polygon style="fill-rule:evenodd;clip-rule:evenodd;fill:#FFEC00;" points="90.619,394.882 109.801,405.294 
								109.752,405.357 109.703,405.422 109.653,405.485 109.604,405.549 109.556,405.612 109.507,405.675 109.458,405.738 
								109.41,405.801 109.361,405.863 109.313,405.927 109.265,405.988 109.217,406.05 109.187,406.09 109.169,406.111 
								109.122,406.173 109.074,406.234 109.027,406.295 108.979,406.357 108.933,406.418 108.886,406.478 108.838,406.539 
								108.792,406.6 108.745,406.659 108.699,406.72 108.653,406.779 108.607,406.839 108.561,406.898 108.555,406.907 
								108.515,406.958 108.469,407.016 108.424,407.074 108.379,407.134 108.334,407.192 108.289,407.251 108.244,407.308 
								108.199,407.366 108.154,407.424 108.065,407.539 108.021,407.596 107.949,407.69 107.934,407.709 107.847,407.822 
								107.803,407.879 107.717,407.99 107.674,408.045 107.631,408.101 107.589,408.155 107.546,408.21 107.504,408.265 
								107.462,408.319 107.42,408.373 107.378,408.428 107.373,408.435 107.337,408.481 107.295,408.535 107.254,408.588 
								107.213,408.642 107.172,408.694 107.131,408.747 107.091,408.8 107.01,408.903 106.97,408.956 106.93,409.007 
								88.194,398.837 							"/>
						</g>
						<g>
							<polygon style="fill-rule:evenodd;clip-rule:evenodd;fill:#FFEC00;" points="95.21,387.393 115.239,398.267 115.192,398.326 
								115.146,398.386 115.1,398.445 115.053,398.506 115.028,398.537 115.007,398.565 114.96,398.624 114.915,398.685 
								114.868,398.744 114.822,398.804 114.776,398.863 114.73,398.923 114.684,398.982 114.638,399.042 114.592,399.101 
								114.546,399.16 114.501,399.22 114.455,399.279 114.409,399.337 114.363,399.397 114.318,399.455 114.272,399.514 
								114.236,399.563 114.228,399.572 114.182,399.632 114.137,399.69 114.091,399.748 114.045,399.807 114.001,399.866 
								113.955,399.924 113.911,399.981 113.865,400.04 113.82,400.099 113.775,400.156 113.73,400.215 113.686,400.272 
								113.641,400.331 113.596,400.389 113.551,400.445 113.507,400.504 113.462,400.561 113.459,400.567 113.418,400.619 
								113.373,400.677 113.329,400.734 113.284,400.792 113.24,400.848 113.195,400.905 113.151,400.963 113.107,401.02 
								113.063,401.077 113.019,401.134 112.975,401.19 112.932,401.248 112.888,401.304 112.844,401.36 112.8,401.418 
								112.756,401.474 112.713,401.53 112.696,401.551 112.669,401.586 112.626,401.643 112.582,401.698 112.539,401.755 
								112.495,401.81 112.452,401.867 112.409,401.922 112.366,401.978 92.784,391.349 							"/>
						</g>
						<g>
							<path style="fill-rule:evenodd;clip-rule:evenodd;fill:#A6491D;" d="M120.369,348.948c-0.413-0.711-0.153-1.608,0.581-2.008
								c0.734-0.399,1.664-0.147,2.076,0.563c1.23,2.113,2.456,4.028,3.498,5.655c0.537,0.839,1.026,1.602,1.454,2.295
								c0.432,0.699,0.196,1.604-0.526,2.022c-0.723,0.417-1.659,0.189-2.091-0.509c-0.404-0.657-0.891-1.417-1.426-2.253
								C122.872,353.055,121.622,351.103,120.369,348.948z"/>
						</g>
						<g>
							<path style="fill-rule:evenodd;clip-rule:evenodd;fill:#DA8F55;" d="M228.227,246.355l14.194-0.737
								c9.113-0.473,13.825-2.896,17.16,0.446c7.288,7.303-7.67,16.712-17.485,10.202l-17.941,3.04L228.227,246.355z"/>
						</g>
						<g>
							<path style="fill-rule:evenodd;clip-rule:evenodd;fill:#B9662C;" d="M160.11,209.697c6.142-1.754,17.869-0.076,29.304,19.73
								c10.084,17.467,35.007,14.984,50.274,15.335l-0.176,14.758c0,0-32.548,3.771-49.243-1.579
								C173.575,252.59,161.604,227.673,160.11,209.697z"/>
						</g>
						<g>
							<path style="fill-rule:evenodd;clip-rule:evenodd;fill:#FFEC00;" d="M234.564,244.719l-0.05,15.277
								c-1.41,0.118-3.068,0.243-4.915,0.358l0.051-15.645C231.336,244.722,232.98,244.719,234.564,244.719z"/>
						</g>
						<g>
							<path style="fill-rule:evenodd;clip-rule:evenodd;fill:#FFEC00;" d="M225.264,244.638l-0.052,15.953
								c-1.568,0.07-3.214,0.129-4.914,0.167l0.054-16.352C221.999,244.519,223.643,244.591,225.264,244.638z"/>
						</g>
						<g>
							<path style="fill-rule:evenodd;clip-rule:evenodd;fill:#DA8F55;" d="M255.665,245.304c1.563-0.573,8.21-5.36,2.703-5.274
								c-7.021,0.109-16.204,4.754-16.946,6.849c0.281,0.766-0.124,0.925,0.643,0.645L255.665,245.304z"/>
						</g>
						<g>
							<path style="fill-rule:evenodd;clip-rule:evenodd;fill:#C8863A;" d="M176.469,289.53
								c-0.756-23.746,6.893-62.993-14.088-82.376c-15.432-12.979-32.622-5.368-35.117,14.227l-9.038,68.366
								C141.935,306.897,167.549,301.538,176.469,289.53z"/>
						</g>
						<g>
							<path style="fill-rule:evenodd;clip-rule:evenodd;fill:#FFEC00;" d="M174.48,228.797c-6.107,0.617-16.099,1.114-30.076,0.214
								c-1.367-0.09-2.548,0.945-2.639,2.313c-0.09,1.367,0.945,2.548,2.313,2.639c14.617,0.941,25.114,0.368,31.465-0.304
								C175.24,232.012,174.889,230.389,174.48,228.797z"/>
						</g>
						<g>
							<path style="fill-rule:evenodd;clip-rule:evenodd;fill:#CF6519;" d="M174.462,228.821c-3.052,0.308-7.071,0.585-12.069,0.674
								c-5.009,0.089-11.002-0.012-17.99-0.462c-0.678-0.044-1.309,0.189-1.782,0.604c-0.473,0.415-0.789,1.009-0.833,1.687
								c-0.045,0.678,0.189,1.309,0.605,1.783c0.414,0.472,1.009,0.787,1.686,0.832c7.309,0.471,13.587,0.563,18.832,0.453
								c5.231-0.109,9.435-0.419,12.607-0.754c-0.15-0.814-0.312-1.623-0.487-2.426C174.854,230.408,174.665,229.61,174.462,228.821
								L174.462,228.821z M162.392,229.45c5.008-0.088,9.032-0.367,12.085-0.675l0.02-0.001l0.005,0.018
								c0.205,0.797,0.395,1.602,0.572,2.411c0.177,0.811,0.34,1.629,0.492,2.452l0.005,0.024l-0.024,0.002
								c-3.176,0.336-7.389,0.647-12.635,0.758c-5.246,0.109-11.525,0.017-18.834-0.453c-0.69-0.045-1.296-0.366-1.718-0.848
								c-0.422-0.482-0.661-1.124-0.616-1.814v-0.001c0.046-0.689,0.367-1.295,0.849-1.718c0.481-0.422,1.124-0.661,1.814-0.615
								C151.393,229.439,157.385,229.539,162.392,229.45z"/>
						</g>
						<g>
							<path style="fill-rule:evenodd;clip-rule:evenodd;fill:#FFEC00;" d="M171.827,220.884
								c-6.194,0.535-15.632,0.877-28.389,0.056c-1.367-0.09-2.548,0.945-2.639,2.313c-0.09,1.367,0.945,2.549,2.313,2.64
								c13.882,0.893,24.049,0.422,30.478-0.205C173.073,224.045,172.488,222.44,171.827,220.884z"/>
						</g>
						<g>
							<path style="fill-rule:evenodd;clip-rule:evenodd;fill:#CF6519;" d="M171.813,220.907c-3.095,0.267-6.997,0.486-11.719,0.536
								c-4.729,0.05-10.278-0.069-16.656-0.48c-0.678-0.044-1.309,0.189-1.782,0.604c-0.473,0.415-0.789,1.01-0.833,1.688
								c-0.044,0.677,0.189,1.309,0.605,1.783c0.414,0.473,1.01,0.788,1.688,0.832c6.94,0.448,12.952,0.553,18.032,0.469
								c5.066-0.085,9.205-0.358,12.415-0.669c-0.256-0.812-0.528-1.615-0.819-2.407C172.45,222.466,172.141,221.68,171.813,220.907
								L171.813,220.907z M160.093,221.397c4.726-0.049,8.634-0.269,11.731-0.537l0.016-0.001l0.006,0.016
								c0.331,0.779,0.643,1.57,0.937,2.372c0.293,0.801,0.569,1.613,0.828,2.435l0.008,0.026l-0.028,0.003
								c-3.214,0.313-7.365,0.587-12.446,0.672c-5.081,0.084-11.094-0.021-18.036-0.468c-0.69-0.046-1.296-0.366-1.718-0.849
								c-0.422-0.482-0.661-1.124-0.615-1.814c0.045-0.691,0.366-1.296,0.848-1.719c0.482-0.422,1.125-0.661,1.815-0.615
								C149.818,221.328,155.366,221.447,160.093,221.397z"/>
						</g>
						<g>
							<path style="fill-rule:evenodd;clip-rule:evenodd;fill:#CF933E;" d="M113.515,292.766c-1.8-1.656-1.917-4.46-0.26-6.26
								c1.657-1.801,4.46-1.918,6.261-0.261c5.786,5.315,16.005,7.985,26.556,8.26c11.254,0.292,22.605-2.134,29.255-6.977
								c1.974-1.438,4.737-1.002,6.174,0.972c1.436,1.972,1.001,4.736-0.971,6.173c-8.232,5.995-21.652,9.015-34.666,8.677
								C133.353,303.024,120.963,299.608,113.515,292.766z"/>
						</g>
						<g>
							<path style="fill-rule:evenodd;clip-rule:evenodd;fill:#FFEC00;" d="M120.105,275.541c12.165,6.783,38.98,9.182,56.47,2.298
								c-0.064,1.875-0.114,3.702-0.14,5.474c-16.877,6.755-43.721,4.355-57.054-2.285L120.105,275.541z"/>
						</g>
						<g>
							<path style="fill-rule:evenodd;clip-rule:evenodd;fill:#FFEC00;" d="M121.397,265.769
								c12.789,6.309,38.695,8.303,55.583,1.457c-0.067,1.858-0.141,3.695-0.213,5.5c-16.326,6.706-42.278,4.679-56.087-1.53
								L121.397,265.769z"/>
						</g>
						<g>
							<path style="fill-rule:evenodd;clip-rule:evenodd;fill:#774620;" d="M140.842,172.461l-9.11,13.116
								c-12.167,13.339,19.145,20.067,36.904,17.556c8.648-1.223,9.935-2.903,10.362-11.054c0.267-5.075-0.247-10.518,0.767-15.313
								C172.921,169.262,147.075,164.804,140.842,172.461z"/>
						</g>
						<g>
							<path style="fill-rule:evenodd;clip-rule:evenodd;fill:#B9662C;" d="M138.941,203.542c0.584-2.315,1.786-6.954,3.634-7.998
								c3.67-2.074,24.214,3.667,24.812,8.686c0.215,1.809-0.089,4.221-0.459,6.198
								C165.314,219.055,136.926,211.542,138.941,203.542z"/>
						</g>
						<g>
							<path style="fill-rule:evenodd;clip-rule:evenodd;fill:#D6A15E;" d="M162.429,208.095l2.951-18.692l-15.316-4.215
								l-4.26,18.419C149.314,208.396,158.109,210.271,162.429,208.095z"/>
						</g>
						<g>
							<path style="fill-rule:evenodd;clip-rule:evenodd;fill:#E9BE98;" d="M166.12,157.704c8.249,2.45,14.944,7.092,14.36,14.277
								c-0.631,7.756-3.053,18.943-7.731,25.494c-2.843,3.981-5.307,4.184-10.106,2.768c-9.784-2.886-16.495-14.86-14.515-24.455
								c0.971-4.703-1.558-8.538,0.974-13.092C152.494,156.597,155.384,154.516,166.12,157.704z"/>
						</g>
						<g>
							<path style="fill-rule:evenodd;clip-rule:evenodd;fill:#C8863A;" d="M138.941,203.542c0.584-2.315,1.786-6.953,3.634-7.998
								c0.11-0.062,4.019,5.004,10.771,7.865c4.582,1.941,12.403,3.128,13.77-0.001c0.144,0.275,0.239,0.55,0.271,0.823
								c0.215,1.809-0.089,4.221-0.459,6.198C165.314,219.055,136.926,211.542,138.941,203.542z"/>
						</g>
						<g>
							<path style="fill-rule:evenodd;clip-rule:evenodd;fill:#39627D;" d="M167.023,181.758c-1.146-0.231-2.262,0.509-2.493,1.655
								c-0.231,1.145,0.51,2.262,1.655,2.493c1.145,0.231,2.261-0.51,2.493-1.656C168.91,183.106,168.169,181.989,167.023,181.758z"
								/>
						</g>
						<g>
							<path style="fill-rule:evenodd;clip-rule:evenodd;fill:#EBEBEB;" d="M169.506,195.243c3.719,0.339,4.586-1.673,5.219-2.855
								l-8.399-1.776C165.596,190.458,165.856,193.917,169.506,195.243z"/>
						</g>
						<g>
							<path style="fill:#B9662C;" d="M159.839,215.503c-2.876,0-6.292-0.613-9.827-1.805c-5.896-1.988-10.557-5.057-12.789-8.418
								c-0.467-0.703-0.275-1.652,0.428-2.119c0.703-0.466,1.651-0.275,2.119,0.428c3.999,6.021,18.05,10.368,23.559,8.361
								c0.792-0.289,1.67,0.12,1.959,0.913c0.289,0.792-0.12,1.669-0.913,1.959C163.124,215.279,161.58,215.503,159.839,215.503z"/>
						</g>
						<g>
							<path style="fill-rule:evenodd;clip-rule:evenodd;fill:#AFB0B0;" d="M253.547,225.828l-24.896-15.089l-23.007,51.751
								c-1.814,8.108,31.43,27.935,37.608,22.719l35.191-44.293L253.547,225.828z"/>
						</g>
						<g>
							<path style="fill-rule:evenodd;clip-rule:evenodd;fill:#999A9A;" d="M236.308,215.38l-6.882-4.171
								c-0.259-0.144-0.521-0.289-0.79-0.437l-22.993,51.718c-1.814,8.108,31.43,27.935,37.608,22.719l4.995-6.288
								C224.153,265.979,228.183,240.961,236.308,215.38z"/>
						</g>
						<g>
							<path style="fill-rule:evenodd;clip-rule:evenodd;fill:#858584;" d="M257.739,218.932
								c-13.901-8.425-27.027-12.192-29.317-8.414c-2.29,3.778,7.123,13.671,21.025,22.096c13.901,8.425,27.027,12.192,29.317,8.414
								C281.054,237.251,271.641,227.357,257.739,218.932z"/>
						</g>
						<g>
							<path style="fill-rule:evenodd;clip-rule:evenodd;fill:#CBD3EC;" d="M232.865,219.826c3.805,3.997,9.632,8.576,16.582,12.788
								c3.68,2.23,23.996,13.658,28.064,7.788C284.479,230.347,242.702,219.453,232.865,219.826z"/>
						</g>
						<g>
							<path style="fill-rule:evenodd;clip-rule:evenodd;fill:#E9BE98;" d="M193.893,240.946l16.323-2.618
								c0.814-0.888,6.008-7.497,8.898-9.907c2.161-1.802,2.821,0.695,1.91,3.368c-0.724,2.126-2.996,4.414-2.324,4.372
								c2.257-0.141,5.724-0.181,9.055-0.868c7.282-1.499,3.01,6.321,1.04,8.503c-8.231,9.117-21.495,6.593-34.539,8.502
								L193.893,240.946z"/>
						</g>
						<g>
							<path style="fill-rule:evenodd;clip-rule:evenodd;fill:#C8863A;" d="M208.957,254.035
								c-13.186,2.069-32.875,8.226-45.807,8.113c-17.634-2.797-37.123-31.303-36.718-47.84
								c0.247-10.082,10.554-16.395,19.437-10.629c7.487,4.858,15.009,23.179,21.11,37.913l39.816-2.941L208.957,254.035z"/>
						</g>
						<g>
							<path style="fill-rule:evenodd;clip-rule:evenodd;fill:#AA6517;" d="M176.766,238.34c0.814-0.028,1.498,0.608,1.526,1.423
								c0.029,0.814-0.608,1.497-1.422,1.526c-1.954,0.07-3.944,0.093-5.942,0.057c-1.938-0.033-3.833-0.116-5.657-0.256
								c-0.598-0.045-1.086-0.439-1.279-0.968c-1.381-3.112-2.661-6.337-3.92-9.512c-1.982-4.996-2.818-5.795-5.068-9.966
								c-0.386-0.718-0.117-1.614,0.602-2c0.718-0.386,1.614-0.117,2,0.601c2.305,4.277,3.183,5.179,5.206,10.278
								c1.144,2.884,2.305,5.809,3.56,8.683c1.557,0.104,3.094,0.167,4.602,0.193C172.902,238.433,174.842,238.411,176.766,238.34z"
								/>
						</g>
						<g>
							<path style="fill-rule:evenodd;clip-rule:evenodd;fill:#AA6517;" d="M177.612,258.638c0.795-0.176,1.582,0.326,1.758,1.122
								c0.175,0.794-0.327,1.581-1.122,1.756c-13.173,2.91-21.884,1.408-29.041-3.885c-7.026-5.195-12.359-13.971-18.947-25.797
								c-0.396-0.711-0.14-1.609,0.572-2.005c0.712-0.396,1.61-0.14,2.006,0.572c6.403,11.495,11.56,20.005,18.127,24.86
								C157.4,260.021,165.384,261.339,177.612,258.638z"/>
						</g>
						<g>
							<path style="fill-rule:evenodd;clip-rule:evenodd;fill:#FFEC00;" d="M198.713,256.001l-1.663-16.766l4.877-0.363
								l1.596,16.091C201.969,255.282,200.36,255.631,198.713,256.001z"/>
						</g>
						<g>
							<path style="fill-rule:evenodd;clip-rule:evenodd;fill:#FFEC00;" d="M189.621,258.098l-1.802-18.175l4.877-0.363
								l1.728,17.426C192.84,257.353,191.235,257.727,189.621,258.098z"/>
						</g>
						<g>
							<path style="fill-rule:evenodd;clip-rule:evenodd;fill:#2D4D5F;" d="M261.661,242.005c0.815-0.042,1.508,0.585,1.55,1.398
								c0.042,0.814-0.585,1.508-1.399,1.55c-16.174,0.863-28.152-3.089-35.304-8.576c-3.162-2.426-5.409-5.171-6.688-7.959
								c-1.331-2.9-1.622-5.85-0.822-8.564c0.896-3.04,3.138-5.727,6.793-7.653c0.722-0.379,1.615-0.103,1.994,0.619
								c0.38,0.722,0.103,1.614-0.618,1.994c-2.904,1.531-4.663,3.589-5.336,5.873c-0.596,2.02-0.358,4.262,0.671,6.506
								c1.081,2.356,3.027,4.712,5.798,6.837C234.969,239.147,246.264,242.826,261.661,242.005z"/>
						</g>
						<g>
							<path style="fill-rule:evenodd;clip-rule:evenodd;fill:#39627D;" d="M171.642,178.81c0.186,0.594-0.146,1.225-0.739,1.411
								c-0.593,0.186-1.225-0.145-1.41-0.738c-0.089-0.284-0.238-0.502-0.424-0.665c-0.277-0.24-0.66-0.379-1.078-0.433
								c-0.46-0.058-0.951-0.006-1.399,0.135c-0.442,0.139-0.822,0.357-1.06,0.631c-0.408,0.468-1.118,0.518-1.587,0.111
								c-0.469-0.407-0.519-1.119-0.111-1.587c0.519-0.598,1.264-1.046,2.086-1.305c0.745-0.233,1.573-0.318,2.36-0.219
								c0.83,0.105,1.627,0.415,2.264,0.969C171.035,177.546,171.42,178.105,171.642,178.81z"/>
						</g>
						<g>
							<path style="fill-rule:evenodd;clip-rule:evenodd;fill:#E9BE98;" d="M151.787,186.803
								c-9.102,0.886-12.46-13.581-2.929-10.089L151.787,186.803z"/>
						</g>
						<g>
							<path style="fill-rule:evenodd;clip-rule:evenodd;fill:#39627D;" d="M156.094,170.7c-1.453,3.602-5.81,11.12-5.81,11.12
								l-4.212-9.945C146.071,171.874,152.317,170.895,156.094,170.7z"/>
						</g>
						<g>
							<g>
								<path style="fill-rule:evenodd;clip-rule:evenodd;fill:#39627D;" d="M178.378,184.107c-1.146-0.231-2.261,0.51-2.493,1.655
									c-0.208,1.035,0.377,2.047,1.337,2.402c0.443-1.326,0.84-2.684,1.194-4.049L178.378,184.107z"/>
							</g>
							<g>
								<path style="fill-rule:evenodd;clip-rule:evenodd;fill:#39627D;" d="M179.206,180.72c-0.419-0.032-0.856,0.022-1.26,0.148
									c-0.442,0.139-0.822,0.356-1.06,0.631c-0.407,0.469-1.118,0.518-1.586,0.111c-0.469-0.407-0.518-1.118-0.111-1.587
									c0.519-0.598,1.264-1.046,2.086-1.305c0.744-0.233,1.57-0.317,2.357-0.219C179.502,179.233,179.36,179.975,179.206,180.72z"
									/>
							</g>
						</g>
						<g>
							<path style="fill-rule:evenodd;clip-rule:evenodd;fill:#B9662C;" d="M139.715,174.232
								c4.229-10.403,1.805-20.853,17.368-24.082c4.581-0.95,9.519-0.478,13.873,1.4c10.13,4.367,11.195,15.232,10.526,26.172
								L139.715,174.232z"/>
						</g>
						<g>
							<path style="fill-rule:evenodd;clip-rule:evenodd;fill:#FFEC00;" d="M141.039,170.34c0.491-1.713,0.883-3.403,1.289-5.036
								c11.991-0.098,26.199,1.04,39.088,2.751c0.167,1.67,0.232,3.393,0.224,5.142C168.191,171.486,153.299,170.346,141.039,170.34
								z"/>
						</g>
						<g>
							<path style="fill-rule:evenodd;clip-rule:evenodd;fill:#CF933E;" d="M174.991,158.901c5.442-0.119,5.264,11.442,5.458,15.752
								c-0.02,0.17-14.519-0.957-14.518-0.968C167.119,169.346,169.548,159.02,174.991,158.901z"/>
						</g>
						<g>
							<path style="fill-rule:evenodd;clip-rule:evenodd;fill:#EBEBEB;" d="M227.525,210.823c0.105-0.808,0.846-1.376,1.653-1.271
								c0.808,0.105,1.378,0.846,1.271,1.653c-0.146,1.113,0.119,2.356,0.719,3.683c2.277,5.034,9.069,10.825,16.917,15.597
								c7.915,4.813,16.827,8.532,23.262,9.378c2.438,0.321,4.458,0.224,5.833-0.399c0.744-0.335,1.619-0.003,1.954,0.74
								c0.335,0.744,0.004,1.619-0.74,1.954c-1.895,0.857-4.456,1.021-7.429,0.63c-6.837-0.899-16.186-4.777-24.417-9.783
								c-8.298-5.046-15.538-11.298-18.073-16.904C227.655,214.288,227.303,212.513,227.525,210.823z"/>
						</g>
						<g>
							<path style="fill-rule:evenodd;clip-rule:evenodd;fill:#858584;" d="M203.716,262.536c-0.083-0.811,0.507-1.536,1.318-1.619
								c0.811-0.083,1.536,0.508,1.619,1.318c0.235,2.292,2.553,5.167,5.696,7.973c4.171,3.726,9.71,7.203,13.966,9.161
								c7.61,3.5,16.606,4.568,16.632,4.571c0.811,0.096,1.39,0.831,1.294,1.642c-0.096,0.811-0.831,1.391-1.642,1.295
								c-0.027-0.004-9.46-1.122-17.511-4.825c-4.482-2.062-10.313-5.724-14.705-9.646
								C206.74,269.151,204.035,265.645,203.716,262.536z"/>
						</g>
						<g>
							<path style="fill-rule:evenodd;clip-rule:evenodd;fill:#2D4D5F;" d="M209.892,434.604c1.141,0,2.065-0.927,2.065-2.07
								c0-1.144-0.924-2.07-2.065-2.07H170.37c-1.14,0-2.064,0.927-2.064,2.07c0,1.143,0.925,2.07,2.064,2.07H209.892z"/>
						</g>
						<g>
							<g>
								<path style="fill-rule:evenodd;clip-rule:evenodd;fill:#CBD3EC;" d="M328.847,255.735
									c5.322,3.424,9.878,7.186,13.083,10.973c3.438,4.064,8.553,13.615,1.649,16.903c-3.198,1.522-7.957-1.037-12.038-6.196
									c-4.142-5.236-10.196-9.001-11.405-10.436c0,0,1.739,3.777,2.058,7.834c0.588,7.499-7.355,12.237-12.21-1.155
									c-3.139-8.656-8.282-21.222-22.647-31.685c-2.999-1.886-5.74-3.917-8.111-6.06c18.3,2.705,31.063-3.062,39.485-7.294
									c12.728-6.396,15.247,2.504,9.667,7.549c-3.018,2.729-6.877,4.279-6.877,4.279c1.863-0.211,8.849,1.211,15.456,0.251
									c6.509-0.946,11.726,0.465,13.004,3.768c2.758,7.132-7.521,10.559-12.81,11.149
									C334.61,255.9,331.813,255.932,328.847,255.735z"/>
							</g>
							<g>
								<path style="fill-rule:evenodd;clip-rule:evenodd;fill:#FFFFFF;" d="M324.578,230.828c-1.777,0.629-3.582,1.201-5.386,1.749
									c-1.619,0.464-3.288,0.926-4.95,1.201c-0.236,0.051-2.745,0.732-2.685,0.026c0.065-0.614,1.792-1.126,2.262-1.32
									c1.505-0.729,3.089-1.369,4.64-1.995c1.752-0.683,3.512-1.366,5.282-2.003C327.315,227.248,327.911,229.591,324.578,230.828
									z"/>
							</g>
							<g>
								<path style="fill-rule:evenodd;clip-rule:evenodd;fill:#FFFFFF;" d="M342.065,244.595c-1.886-0.004-3.777-0.072-5.661-0.161
									c-1.68-0.105-3.407-0.231-5.065-0.53c-0.24-0.03-2.831-0.231-2.538-0.876c0.266-0.557,2.066-0.46,2.574-0.485
									c1.662-0.181,3.369-0.254,5.04-0.322c1.879-0.055,3.767-0.107,5.647-0.113C345.846,242.14,345.62,244.547,342.065,244.595z"
									/>
							</g>
							<g>
								<path style="fill-rule:evenodd;clip-rule:evenodd;fill:#AEBFE3;" d="M316.563,255.289c3.371,7.889-2.689,9.865-8.144,1.775
									c-5.456-8.09-17.052-15.31-27.34-19.56c1.91,1.562,4.013,3.055,6.259,4.469c14.365,10.463,19.508,23.029,22.647,31.685
									c4.855,13.393,12.799,8.654,12.21,1.155c-0.318-4.057-2.058-7.834-2.058-7.834c1.208,1.435,7.263,5.199,11.405,10.436
									c2.889,3.653,6.119,6.003,8.894,6.523c1.144,0.214,2.21,0.116,3.144-0.327c4.189-1.996,3.954-6.295,2.353-10.277
									c-0.758,0.242-1.567,0.427-2.431,0.541c-0.798,0.105-1.626,0.074-2.476-0.076
									C330.088,271.881,313.192,247.402,316.563,255.289z"/>
							</g>
						</g>
					</g>
					<g>
						<path style="fill-rule:evenodd;clip-rule:evenodd;fill:#FFFFFF;" d="M426.184,220.361c-5.734-2.063-12.383-0.322-16.311,4.761
							c-4.875,6.31-3.713,15.378,2.598,20.254c1.349,1.042,2.823,1.807,4.357,2.307c0.028,4.675,2.13,9.29,6.116,12.371
							c6.88,5.315,16.766,4.048,22.082-2.832c0.834-1.08,1.506-2.235,2.021-3.434c4.063,0.397,8.234-1.241,10.913-4.709
							c4.144-5.361,3.155-13.065-2.206-17.208c-0.815-0.63-1.684-1.14-2.587-1.535v-0.001c3.043-3.937,2.317-9.596-1.62-12.639
							c-3.339-2.58-7.914-2.451-11.084,0.047c-0.467-1.226-1.267-2.343-2.382-3.204c-3.226-2.493-7.862-1.898-10.355,1.328
							C426.689,217.207,426.188,218.79,426.184,220.361z"/>
					</g>
					<g>
						<path style="fill-rule:evenodd;clip-rule:evenodd;fill:#FFFFFF;" d="M377.737,200.351c5.343-1.611,9.281-6.517,9.395-12.398
							c0.144-7.298-5.657-13.331-12.956-13.474c-1.56-0.03-3.062,0.211-4.46,0.681c-2.571-3.422-6.634-5.669-11.245-5.759
							c-7.957-0.157-14.534,6.168-14.69,14.124c-0.024,1.25,0.111,2.466,0.387,3.628c-3.204,1.923-5.377,5.402-5.456,9.414
							c-0.122,6.201,4.807,11.326,11.008,11.447c0.942,0.019,1.86-0.08,2.739-0.281l0,0c-0.089,4.555,3.53,8.319,8.085,8.409
							c3.861,0.076,7.154-2.514,8.122-6.08c1.013,0.646,2.21,1.031,3.499,1.057c3.732,0.073,6.816-2.892,6.89-6.624
							C379.086,202.946,378.592,201.509,377.737,200.351z"/>
					</g>
					<g>
						<g>
							<g>
								<path style="fill-rule:evenodd;clip-rule:evenodd;fill:#C8863A;" d="M630.461,237.702
									c-17.253-8.764-25.763-11.121-29.361-18.26l-6.401-22.434c28.299,0.899,47.098,17.794,56.611,26.738
									C657.734,229.787,641.444,241.615,630.461,237.702z"/>
							</g>
							<g>
								<path style="fill-rule:evenodd;clip-rule:evenodd;fill:#C8863A;" d="M568.531,202.001l-0.506,34.139
									c0,0-4.498,20.442-15.232,32.615c-6.807,4.052-13.224,3.605-15.649-4.387c2.502-11.514,8.562-39.19,20.664-55.474
									C560.769,204.913,564.815,203.652,568.531,202.001z"/>
							</g>
							<g>
								<path style="fill-rule:evenodd;clip-rule:evenodd;fill:#5A2419;" d="M642.828,401.027l4.436,16.257
									c-6.467-0.817-13.104,1.746-12.494,15.497h35.075c-0.451-13.011-2.646-24.859-8.671-33.225L642.828,401.027z"/>
							</g>
							<g>
								<path style="fill-rule:evenodd;clip-rule:evenodd;fill:#471508;" d="M642.828,401.027l3.475,12.738
									c9.688,2.304,17.218,0.656,20.979-0.6c-1.355-5.128-3.322-9.741-6.108-13.609L642.828,401.027z"/>
							</g>
							<g>
								<path style="fill-rule:evenodd;clip-rule:evenodd;fill:#1B3C4F;" d="M669.054,434.469c1.13,0,2.045-0.926,2.045-2.07
									c0-1.143-0.915-2.07-2.045-2.07h-33.765c-1.129,0-2.046,0.928-2.046,2.07c0,1.145,0.917,2.07,2.046,2.07H669.054z"/>
							</g>
							<g>
								<path style="fill-rule:evenodd;clip-rule:evenodd;fill:#471508;" d="M546.833,398.59l-1.279,12.741
									c5.967,3.426,15.026,1.943,19.236,0.973l1.538-10.279L546.833,398.59z"/>
							</g>
							<g>
								<g>
									<path style="fill-rule:evenodd;clip-rule:evenodd;fill:#5A2419;" d="M546.886,393.739l-2.348,23.387
										c-8.993-1.844-20.761-2.359-19.927,15.434h39.198l5.446-36.412L546.886,393.739z"/>
								</g>
								<g>
									<path style="fill-rule:evenodd;clip-rule:evenodd;fill:#1B3C4F;" d="M563.566,434.469c1.291,0,2.336-1.049,2.336-2.342
										c0-1.294-1.045-2.343-2.336-2.343h-38.545c-1.29,0-2.337,1.049-2.337,2.343c0,1.293,1.047,2.342,2.337,2.342H563.566z"/>
								</g>
							</g>
							<g>
								<path style="fill-rule:evenodd;clip-rule:evenodd;fill:#BC6F2F;" d="M605.822,284.914l-36.324-1.44
									c-12.708,40.206-25.181,62.781-26.3,120.673c6.19,3.921,20.462,4.643,27.074,3.179c7.207-53.893,8.95-62.86,34.265-104.765
									C604.537,302.56,614.261,286.715,605.822,284.914z"/>
							</g>
							<g>
								<path style="fill-rule:evenodd;clip-rule:evenodd;fill:#BC6F2F;" d="M623.561,288.646l44.128,116.259
									c-11.479,5.467-19.44,3.949-27.295,2.104c0,0-18.951-35.813-30.427-62.714c-11.474-26.899-31.649-56.826-31.649-56.826
									L623.561,288.646z"/>
							</g>
							<g>
								<path style="fill-rule:evenodd;clip-rule:evenodd;fill:#C8863A;" d="M601.578,197.946
									c21.168,12.565,25.301,81.161,27.309,100.902c-24.972,8.484-48.605,10.109-66.519,0.313
									c7.708-32.888-4.437-88.994,4.847-96.63c3.676-2.081,7.886-2.871,14.043-3.777
									C586.738,197.947,596.806,196.482,601.578,197.946z"/>
							</g>
							<g>
								<g>
									<path style="fill-rule:evenodd;clip-rule:evenodd;fill:#FFEC00;" d="M618.822,229.56c0.453,1.694,0.885,3.419,1.298,5.167
										c-15.956,6.977-39.049,9.641-55.843,8.268c-0.087-1.818-0.173-3.612-0.255-5.372
										C579.906,239.096,602.51,236.481,618.822,229.56z"/>
								</g>
								<g>
									<path style="fill-rule:evenodd;clip-rule:evenodd;fill:#FFEC00;" d="M615.834,219.816c0.575,1.63,1.125,3.312,1.649,5.04
										c-15.556,6.487-37.362,9.038-53.674,7.892c-0.075-1.838-0.14-3.626-0.187-5.358
										C578.963,228.599,600.051,226.136,615.834,219.816z"/>
								</g>
							</g>
							<g>
								<path style="fill:#CF933E;" d="M593.157,310.138c-10.509,0-22.746-1.705-33.414-7.662c-2.947-1.646-4.003-5.37-2.356-8.318
									c1.646-2.948,5.371-4.004,8.318-2.357c8.825,4.929,21.389,6.973,35.377,5.757c12.354-1.073,21.083-4.213,22.833-5.415
									c2.317-2.272,6.034-2.342,8.437-0.11c2.474,2.297,2.617,6.166,0.32,8.64c-4.228,4.552-18.04,7.82-29.084,8.933
									C600.431,309.921,596.903,310.138,593.157,310.138z"/>
							</g>
							<g>
								<path style="fill-rule:evenodd;clip-rule:evenodd;fill:#39627D;" d="M503.832,278.772c-0.734,0.323-1.068,1.183-0.745,1.918
									c0.324,0.735,1.183,1.069,1.918,0.745c11.838-5.231,20.969,4.046,30.789,14.024c15.198,15.442,31.94,32.451,62.818,5.51
									c4.222-3.682,8.618-6.438,13-8.637c4.405-2.213,8.824-3.875,13.041-5.355c0.758-0.264,1.158-1.092,0.894-1.85
									c-0.264-0.757-1.092-1.157-1.849-0.894c-4.301,1.51-8.819,3.212-13.383,5.504c-4.588,2.303-9.191,5.189-13.614,9.047
									c-28.815,25.14-44.551,9.152-58.836-5.362C527.313,282.701,517.501,272.731,503.832,278.772z"/>
							</g>
							<g>
								<polygon style="fill-rule:evenodd;clip-rule:evenodd;fill:#E9BE98;" points="522.425,277.375 512.378,279.564 
									509.425,266.336 516.592,263.257 								"/>
							</g>
							<g>
								<path style="fill-rule:evenodd;clip-rule:evenodd;fill:#E9BE98;" d="M514.333,267.445
									c-3.614-3.292-19.503,0.643-23.839,14.608c-0.847,2.73,14.125-6.21,15.371-5.3c1.21,0.883,0.24,5.126,0.451,8.194
									c0.147,2.124,1.349,3.646,2.217,3.27c3.417-1.477,9.656-12.442,9.656-12.442L514.333,267.445z"/>
							</g>
							<g>
								<path style="fill-rule:evenodd;clip-rule:evenodd;fill:#C8863A;" d="M521.886,280.869
									c-3.099-5.563-6.195-11.129-9.294-16.694c7.073-3.014,20.366-10.365,28.769-13.952c8.59-0.772,21.223,14.027,7.64,21.392
									C539.822,276.59,529.422,279.7,521.886,280.869z"/>
							</g>
							<g>
								<polygon style="fill-rule:evenodd;clip-rule:evenodd;fill:#39627D;" points="488.61,296.63 505.93,282.063 503.443,277.625 
									482.781,286.338 								"/>
							</g>
							<g>
								<path style="fill-rule:evenodd;clip-rule:evenodd;fill:#39627D;" d="M503.008,282.94c-0.059,1.629,1.216,2.996,2.844,3.054
									c1.629,0.058,2.995-1.217,3.053-2.845c0.049-1.322-0.584-3.179-1.458-4.766c-0.876-1.591-2.11-3.125-3.26-3.794
									c-1.41-0.816-3.217-0.336-4.034,1.075c-0.816,1.412-0.336,3.218,1.075,4.035c0.195,0.113,0.613,0.754,1.04,1.528
									C502.697,282.008,503.016,282.711,503.008,282.94z"/>
							</g>
							<g>
								<path style="fill-rule:evenodd;clip-rule:evenodd;fill:#D8D8D8;" d="M634.313,284.075c-2.016,0.684-4.031,1.368-6.046,2.053
									l2.272,6.693c2.016-0.685,4.031-1.368,6.046-2.054L634.313,284.075z"/>
							</g>
							<g>
								
									<rect x="622.756" y="283.285" transform="matrix(0.9469 -0.3216 0.3216 0.9469 -58.4924 216.2575)" style="fill-rule:evenodd;clip-rule:evenodd;fill:#EBEBEB;" width="5.041" height="3.752"/>
							</g>
							<g>
								<path style="fill-rule:evenodd;clip-rule:evenodd;fill:#C74239;" d="M651.373,297.947l18.245,53.731
									c1.097,3.229-4.335,7.993-12.132,10.641c-7.796,2.647-15.006,2.176-16.102-1.053l-18.246-53.732
									c-1.93-5.684,1.064-12.874,10.308-16.013C642.69,288.382,649.442,292.264,651.373,297.947z"/>
							</g>
							<g>
								<polygon style="fill-rule:evenodd;clip-rule:evenodd;fill:#FFEC00;" points="633.586,291.862 629.74,293.168 
									629.95,291.085 632.974,290.059 635.996,289.032 637.43,290.557 								"/>
							</g>
							<g>
								<path style="fill-rule:evenodd;clip-rule:evenodd;fill:#E5B5B3;" d="M650.268,306.306
									c-5.093,4.435-14.371,7.567-21.115,7.281l8.198,24.147c5.34,3.087,19.442-1.614,21.002-7.618L650.268,306.306z"/>
							</g>
							<g>
								<path style="fill:#BC6F2F;" d="M587.96,299.645c-0.675,0-1.222-0.546-1.223-1.221c-0.023-16.043-2.214-33.872-4.146-49.602
									c-2.202-17.929-4.107-33.439-2.326-41.847c-0.909-3.961-1.291-6.096-0.912-8.201c0.119-0.665,0.756-1.107,1.42-0.987
									c0.665,0.119,1.107,0.755,0.986,1.419c-0.293,1.631,0.041,3.543,0.951,7.487c0.041,0.179,0.042,0.365,0.001,0.544
									c-1.791,7.927,0.108,23.386,2.308,41.286c1.941,15.799,4.14,33.708,4.162,49.898
									C589.184,299.095,588.637,299.644,587.96,299.645L587.96,299.645z"/>
							</g>
							<g>
								<path style="fill-rule:evenodd;clip-rule:evenodd;fill:#39627D;" d="M628.364,287.3c-0.412,0.14-0.859-0.08-0.999-0.493
									c-0.48-1.413-0.957-2.829-1.438-4.243c-0.141-0.311-0.069-0.691,0.202-0.924l6.431-5.551
									c3.331-2.876,8.529-6.081,13.126-4.995c1.002,0.236,0.644,1.764-0.359,1.527c-6.085,0.927-7.227,3.45-9.178,6.951
									C638.332,284.936,634.24,285.305,628.364,287.3z"/>
							</g>
							<g>
								<path style="fill-rule:evenodd;clip-rule:evenodd;fill:#CF6760;" d="M631.936,284.247c1.659-0.565,3.461,0.323,4.025,1.983
									c0.563,1.659-0.325,3.462-1.984,4.024c-1.66,0.563-3.461-0.325-4.025-1.984C629.389,286.611,630.277,284.81,631.936,284.247
									z"/>
							</g>
							<g>
								<path style="fill-rule:evenodd;clip-rule:evenodd;fill:#DC9895;" d="M632.215,285.068c1.206-0.409,2.515,0.236,2.925,1.441
									c0.408,1.204-0.236,2.514-1.441,2.923c-1.205,0.409-2.515-0.236-2.923-1.44
									C630.365,286.786,631.011,285.478,632.215,285.068z"/>
							</g>
							<g>
								<path style="fill-rule:evenodd;clip-rule:evenodd;fill:#E9BE98;" d="M636.079,267.709
									c-0.901,0.203-7.512,9.065-7.568,10.265c-0.059,1.258,3.2,1.879,6.551-0.977c1.129-0.962,1.039,2.171,0.957,5.074
									c-0.067,2.402-0.404,6.655,1.715,5.65c6.237-2.957,12.845-5.273,12.754-9.675
									C650.318,269.911,643.845,262.82,636.079,267.709z"/>
							</g>
							<g>
								<polygon style="fill-rule:evenodd;clip-rule:evenodd;fill:#E9BE98;" points="635.688,274.168 635.548,262.576 
									648.323,264.09 648.869,274.69 								"/>
							</g>
							<g>
								<path style="fill-rule:evenodd;clip-rule:evenodd;fill:#C8863A;" d="M633.203,269.622
									c-0.001-5.248-1.342-19.589-0.078-31.207c0.619-3.461,17.941-29.699,21.417-6.159c1.188,8.047-1.548,33.034-2.985,36.699
									C650.219,273.035,640.001,274.13,633.203,269.622z"/>
							</g>
							<g>
								<path style="fill-rule:evenodd;clip-rule:evenodd;fill:#FFEC00;" d="M516.504,262.388c2.601-1.244,5.583-2.75,8.666-4.311
									l10.348,19.362c-3.333,1.127-6.575,2.017-9.547,2.663L516.504,262.388z"/>
							</g>
							<g>
								<path style="fill-rule:evenodd;clip-rule:evenodd;fill:#AFB0B0;" d="M519.243,261.052c1.048-0.517,2.135-1.061,3.245-1.62
									l9.919,18.998c-1.216,0.365-2.409,0.695-3.573,0.994L519.243,261.052z"/>
							</g>
							<g>
								<path style="fill-rule:evenodd;clip-rule:evenodd;fill:#774620;" d="M599.037,168.561l7.304,13.882
									c2.526,11.923-37.129,21.651-48.823,12.304c-2.837-5.817-1.016-16.601-0.51-24.218
									C565.934,163.318,594.934,160.763,599.037,168.561z"/>
							</g>
							<g>
								<path style="fill-rule:evenodd;clip-rule:evenodd;fill:#B9662C;" d="M598.79,198.71c-0.506-2.335-1.554-7.008-3.366-8.114
									c-3.599-2.195-24.322,2.86-25.086,7.857c-0.275,1.8-0.051,4.222,0.253,6.21C571.916,213.338,600.54,206.773,598.79,198.71z"
									/>
							</g>
							<g>
								<path style="fill-rule:evenodd;clip-rule:evenodd;fill:#D6A15E;" d="M575.165,202.48l-2.327-18.781l15.447-3.703
									l3.644,18.549C588.264,203.217,579.41,204.799,575.165,202.48z"/>
							</g>
							<g>
								<path style="fill-rule:evenodd;clip-rule:evenodd;fill:#E9BE98;" d="M573.15,151.994
									c-20.008,5.225-13.786,37.721-1.346,41.669c18.233,3.839,27.042-18.863,18.188-36.114
									C586.807,151.341,583.987,149.165,573.15,151.994z"/>
							</g>
							<g>
								<path style="fill-rule:evenodd;clip-rule:evenodd;fill:#E9BE98;" d="M564.436,184.476
									c-5.663,1.708-10.066-12.267-3.444-9.693L564.436,184.476z"/>
								<path style="fill:#E9BE98;" d="M563.466,184.644c-1.465,0-2.928-0.978-4.12-2.753c-1.047-1.559-1.698-3.479-1.698-5.01
									c0-0.727,0.154-1.331,0.446-1.745c0.326-0.46,0.813-0.695,1.446-0.695v0.047c-0.618,0-1.091,0.227-1.407,0.675
									c-0.287,0.407-0.439,1.001-0.439,1.718c0.001,1.522,0.648,3.432,1.69,4.984c0.685,1.02,2.128,2.732,4.082,2.732h0.001v0.046
									H563.466z"/>
							</g>
							<g>
								<path style="fill-rule:evenodd;clip-rule:evenodd;fill:#B9662C;" d="M577.009,166.182
									c8.025-0.562,14.823,1.068,22.616,2.995c-4.492-4.662-1.734-11.996-6.315-17.708c-5.749-7.169-16.268-9.128-24.788-5.786
									c-10.269,4.028-11.694,14.852-11.391,25.808C564.785,168.462,568.983,166.745,577.009,166.182z"/>
							</g>
							<g>
								<path style="fill-rule:evenodd;clip-rule:evenodd;fill:#E9BE98;" d="M591.623,180.94c6.677,1.108,9.633-13.267,2.493-10.011
									L591.623,180.94z"/>
							</g>
							<g>
								<path style="fill-rule:evenodd;clip-rule:evenodd;fill:#FFEC00;" d="M597.802,165.892c-0.512-1.472-1.032-3.29-1.264-4.917
									c-16.782-6.595-31.676-4.025-39.146,1.9c-0.177,1.636-0.264,3.319-0.289,5.024
									C564.46,161.457,583.129,159.884,597.802,165.892z"/>
							</g>
							<g>
								<path style="fill-rule:evenodd;clip-rule:evenodd;fill:#CF933E;" d="M571.506,149.7c-5.428-0.032-6.646,11.55-7.363,15.872
									c-0.001,0.341,14.634-1.179,14.634-1.199C578.113,160.042,576.933,149.733,571.506,149.7z"/>
							</g>
							<g>
								<path style="fill-rule:evenodd;clip-rule:evenodd;fill:#C8863A;" d="M598.79,198.71c-0.506-2.334-1.554-7.008-3.366-8.114
									c-0.106-0.066-4.184,4.868-11.025,7.502c-4.644,1.788-12.501,2.714-13.763-0.459c-0.152,0.271-0.258,0.543-0.298,0.814
									c-0.275,1.8-0.051,4.222,0.253,6.21C571.916,213.338,600.54,206.773,598.79,198.71z"/>
							</g>
							<g>
								<path style="fill-rule:evenodd;clip-rule:evenodd;fill:#39627D;" d="M575.644,170.061c-0.204,0.587,0.105,1.229,0.692,1.435
									c0.586,0.205,1.229-0.105,1.434-0.691c0.099-0.28,0.254-0.495,0.446-0.65c0.285-0.231,0.672-0.357,1.092-0.396
									c0.462-0.043,0.951,0.025,1.394,0.18c0.438,0.153,0.812,0.383,1.039,0.665c0.392,0.482,1.1,0.555,1.582,0.164
									c0.481-0.392,0.556-1.1,0.163-1.583c-0.498-0.615-1.229-1.087-2.04-1.372c-0.737-0.259-1.563-0.37-2.353-0.297
									c-0.832,0.077-1.64,0.36-2.295,0.892C576.293,168.818,575.889,169.364,575.644,170.061z"/>
							</g>
							<g>
								<path style="fill-rule:evenodd;clip-rule:evenodd;fill:#39627D;" d="M580.161,173.161c1.153-0.193,2.243,0.585,2.437,1.738
									c0.193,1.152-0.584,2.243-1.736,2.436c-1.152,0.193-2.243-0.585-2.436-1.737
									C578.232,174.445,579.01,173.354,580.161,173.161z"/>
							</g>
							<g>
								<path style="fill-rule:evenodd;clip-rule:evenodd;fill:#39627D;" d="M570.655,170.897c0.385,0.488,0.302,1.196-0.186,1.581
									c-0.488,0.385-1.196,0.301-1.581-0.186c-0.185-0.233-0.401-0.384-0.634-0.469c-0.345-0.126-0.751-0.119-1.161-0.019
									c-0.451,0.109-0.892,0.333-1.26,0.625c-0.363,0.286-0.641,0.626-0.765,0.967c-0.214,0.583-0.859,0.883-1.442,0.67
									c-0.584-0.213-0.884-0.859-0.671-1.442c0.272-0.744,0.808-1.429,1.483-1.963c0.612-0.484,1.356-0.858,2.126-1.047
									c0.813-0.198,1.667-0.193,2.462,0.097C569.637,169.932,570.196,170.317,570.655,170.897z"/>
							</g>
							<g>
								<path style="fill-rule:evenodd;clip-rule:evenodd;fill:#39627D;" d="M567.394,175.299c-1.152,0.193-1.931,1.284-1.737,2.436
									c0.192,1.152,1.283,1.931,2.435,1.738c1.152-0.193,1.931-1.284,1.737-2.437
									C569.637,175.884,568.546,175.106,567.394,175.299z"/>
							</g>
							<g>
								<path style="fill-rule:evenodd;clip-rule:evenodd;fill:#EBEBEB;" d="M576.08,188.24c-3.729,0.216-4.528-1.825-5.121-3.026
									l8.453-1.496C580.146,183.589,579.771,187.038,576.08,188.24z"/>
							</g>
							<g>
								<path style="fill:#B9662C;" d="M578.212,209.983c-2.031,0-3.815-0.279-5.216-0.843c-0.783-0.315-1.162-1.205-0.848-1.988
									c0.315-0.783,1.207-1.162,1.989-0.847c5.438,2.189,19.626-1.688,23.824-7.573c0.489-0.688,1.444-0.848,2.131-0.357
									c0.688,0.49,0.847,1.444,0.356,2.132c-2.342,3.285-7.102,6.197-13.06,7.988
									C584.104,209.481,580.935,209.983,578.212,209.983z"/>
							</g>
							<g>
								<path style="fill-rule:evenodd;clip-rule:evenodd;fill:#39627D;" d="M588.785,171.382c-0.162-0.829,0.378-1.631,1.206-1.792
									c0.827-0.162,1.629,0.378,1.791,1.206c0.631,3.197,0.745,6.016,0.471,8.497c-0.31,2.82-1.125,5.199-2.26,7.198l-0.088,0.156
									c-2.625,4.532-6.419,7.107-10.34,8.111c-3.939,1.008-8.016,0.415-11.182-1.381l-0.004-0.003l-0.001,0.003l-0.09-0.051
									c-0.028-0.017-0.056-0.034-0.084-0.052c-2.857-1.681-4.862-4.321-6.357-7.563c-1.438-3.121-2.399-6.805-3.207-10.715
									c-0.168-0.824,0.363-1.629,1.188-1.797c0.824-0.168,1.63,0.363,1.799,1.188c0.763,3.7,1.663,7.167,2.991,10.047
									c1.246,2.705,2.872,4.881,5.131,6.211l0.056,0.03l0.089,0.052l-0.001,0.002c2.502,1.419,5.753,1.879,8.919,1.068
									c3.188-0.816,6.285-2.934,8.452-6.678l0.077-0.132c0.94-1.654,1.615-3.643,1.878-6.028
									C589.461,176.777,589.354,174.266,588.785,171.382z"/>
							</g>
							<g>
								<path style="fill-rule:evenodd;clip-rule:evenodd;fill:#B9662C;" d="M597.121,178.483
									c4.068-0.079,2.381-10.023,0.268-12.174c-6.518-4.129-15.678-5.375-25.279-3.803c-5.962,0.976-14.839,3.254-15.027,5.949
									c-0.252,2.915-1.11,11.911-1.104,16.661c6.389-0.72,5.606-10.633,5.216-16.148c6.427-3.478,17.702-4.078,25.053-2.939
									C587.835,170.997,591.271,178.79,597.121,178.483z"/>
							</g>
							<g>
								<path style="fill-rule:evenodd;clip-rule:evenodd;fill:#39627D;" d="M582.881,190.462c0.146,0.801,0.916,1.333,1.717,1.185
									c0.802-0.147,1.332-0.916,1.185-1.716c-0.12-0.652-0.217-1.275-0.314-1.897c-0.681-4.375-1.35-8.681-6.102-8.317
									c-1.086,0.084-2.44,0.275-3.848,0.515c-1.716,0.292-3.565,0.67-5.088,1.007c-5.056,1.118-4.372,4.852-3.629,8.914
									c0.154,0.847,0.314,1.711,0.399,2.544c0.082,0.812,0.808,1.401,1.618,1.318c0.811-0.083,1.4-0.808,1.317-1.618
									c-0.096-0.929-0.267-1.863-0.433-2.776c-0.478-2.605-0.916-5,1.363-5.503c1.422-0.314,3.199-0.676,4.937-0.972
									c1.316-0.225,2.577-0.403,3.581-0.48c2.04-0.157,2.5,2.808,2.97,5.82C582.661,189.165,582.768,189.847,582.881,190.462z"/>
							</g>
							<g>
								<path style="fill:#CF933E;" d="M562.038,415.165c-5.828,0-13.045-0.872-19.995-2.558c-3.281-0.795-5.297-4.101-4.502-7.382
									c0.796-3.281,4.101-5.298,7.383-4.501c11.264,2.73,20.183,2.421,22.104,1.826c3.045-1.324,6.602,0.026,7.992,3.057
									c1.408,3.069,0.063,6.698-3.006,8.107C569.887,414.69,566.34,415.165,562.038,415.165z"/>
							</g>
							<g>
								<path style="fill:#CF933E;" d="M646.144,416.668c-1.58,0-3.249-0.041-4.997-0.135c-3.371-0.182-5.957-3.061-5.776-6.434
									c0.181-3.371,3.057-5.955,6.433-5.776c11.112,0.599,19.519-1.256,21.259-2.155c2.749-1.85,6.486-1.172,8.405,1.549
									c1.947,2.761,1.288,6.574-1.471,8.521c-2.188,1.543-6.036,2.736-11.44,3.547
									C655.658,416.22,651.394,416.668,646.144,416.668z"/>
							</g>
							<g>
								<g>
									<path style="fill-rule:evenodd;clip-rule:evenodd;fill:#FFEC00;" d="M564.758,281.07
										c15.43,3.973,42.826,3.129,62.059-3.915c0.196,1.865,0.379,3.67,0.549,5.405c-18.789,6.957-46.518,7.778-63.017,3.932
										C564.517,284.715,564.652,282.906,564.758,281.07z"/>
								</g>
								<g>
									<path style="fill-rule:evenodd;clip-rule:evenodd;fill:#FFEC00;" d="M565.072,270.991
										c15.586,3.588,41.876,2.617,60.56-4.175c0.227,1.824,0.44,3.616,0.64,5.374c-18.179,6.706-44.684,7.686-61.307,4.262
										C565.022,274.647,565.058,272.825,565.072,270.991z"/>
								</g>
							</g>
							<g>
								<g>
									<path style="fill-rule:evenodd;clip-rule:evenodd;fill:#FFEC00;" d="M632.685,256.208
										c3.753,0.747,7.509,1.316,11.259,1.166c3.263-0.131,6.51-0.839,9.76-1.807c-0.416,3.89-0.896,7.438-1.347,9.968
										c-3.054,0.694-6.107,1.197-9.167,1.271c-3.363,0.081-6.729-0.327-10.095-0.872
										C632.977,263.288,632.797,259.912,632.685,256.208z"/>
								</g>
								<g>
									<path style="fill-rule:evenodd;clip-rule:evenodd;fill:#AFB0B0;" d="M632.793,259.237
										c3.657,0.716,7.319,1.264,10.977,1.163c3.19-0.088,6.373-0.698,9.556-1.553c-0.162,1.326-0.328,2.58-0.496,3.729
										c-3.112,0.751-6.222,1.289-9.341,1.355c-3.512,0.074-7.024-0.41-10.536-1.048
										C632.899,261.742,632.845,260.519,632.793,259.237z"/>
								</g>
							</g>
							<g>
								<g>
									<path style="fill-rule:evenodd;clip-rule:evenodd;fill:#FFEC00;" d="M633.303,393.296
										c8.761-0.968,18.501-3.066,27.65-6.142l1.916,5.05c-8.771,2.955-18.229,5.048-26.979,6.147
										C635.104,396.822,634.236,395.131,633.303,393.296z"/>
								</g>
								<g>
									<path style="fill-rule:evenodd;clip-rule:evenodd;fill:#FFEC00;" d="M628.33,383.432
										c9.016-0.811,19.262-2.882,28.916-6.039l1.919,5.052c-9.266,3.036-19.229,5.114-28.277,6.086
										C630.065,386.897,629.209,385.194,628.33,383.432z"/>
								</g>
							</g>
							<g>
								<g>
									<path style="fill-rule:evenodd;clip-rule:evenodd;fill:#FFEC00;" d="M543.88,387.565
										c8.903,1.815,19.013,2.829,28.731,2.666c-0.249,1.749-0.5,3.547-0.758,5.41c-9.44,0.092-19.354-0.927-28.276-2.705
										C543.665,391.11,543.767,389.319,543.88,387.565z"/>
								</g>
								<g>
									<path style="fill-rule:evenodd;clip-rule:evenodd;fill:#FFEC00;" d="M544.725,377.171
										c9.132,1.849,19.519,2.854,29.445,2.614c-0.276,1.745-0.553,3.548-0.83,5.418c-9.685,0.161-19.915-0.864-29.094-2.693
										C544.393,380.694,544.552,378.913,544.725,377.171z"/>
								</g>
							</g>
						</g>
						<g>
							<path style="fill-rule:evenodd;clip-rule:evenodd;fill:#39627D;" d="M480.938,286.331c-0.409-0.705-0.168-1.608,0.537-2.018
								c0.705-0.408,1.609-0.168,2.018,0.537c0.158,0.271,7.238,11.794,6.909,12.793c-0.256,0.772-1.089,1.191-1.861,0.937
								C488.539,298.579,488.008,298.511,480.938,286.331z"/>
						</g>
					</g>
				</g>
				<g>
					<path style="fill-rule:evenodd;clip-rule:evenodd;fill:#BC2416;" d="M286.292,434.603h-12.225c0,0-13.151-3.704-13.892-18.893
						c-0.741-15.188,8.52-16.3,7.965-26.487c-0.556-10.188-8.335-14.817-8.335-14.817s14.447-4.631,22.783,7.223
						c3.932,5.593,2.431,9.219,1.841,12.482c-2.783,15.384,15.061,12.406,15.627,3.653c0.571-8.835-10.386-13.306-7.608-20.529
						c2.778-7.224,6.271-8.892,6.271-8.892s-4.288,5.844,4.528,12.738c4.148,3.243,11.755,3.975,10.643,11.198
						c-1.111,7.224,12.596,4.815,8.706-2.408c-3.89-7.225,4.445-12.409,5.927-13.151c1.482-0.74-2.778,10.373,2.037,13.151
						c4.816,2.779,11.299-4.445,4.631-14.263c-6.668-9.816-4.445-15.743-4.445-15.743s4.445,12.779,10.743,12.966
						c6.297,0.185,15.929,7.594,14.077,13.705c-1.853,6.113,5.186,12.781,9.076,6.298c3.89-6.482-0.37-11.854-0.37-11.854
						s6.482-1.668,8.706,5.002c2.222,6.667,8.521,8.519,11.854,7.408c3.334-1.111-2.778-3.891-3.891-8.335
						c-1.11-4.446,6.483-8.521,6.483-8.521s4.075-5.187,0.185-8.336c-3.889-3.148,10.743,3.705,9.447,9.633
						c-1.297,5.927-2.038,8.705,1.667,10.558c3.705,1.853,6.112-3.52,2.593-8.15c-3.52-4.631,4.816-9.076,4.816-9.076
						s-2.594,6.112-0.556,8.149c2.037,2.038,8.834,5.772,7.352,11.143c-0.841,3.049,2.648,12.421,12.824,12.823
						c12.933,0.513,21.554-12.247,12.466-22.206c0,0,9.725-0.37,9.633,6.112c-0.093,6.482,8.521,7.779,8.983,1.668
						c0.462-6.113-1.702-7.771,5.691-11.376c7.393-3.604,0.699-16.273,0.699-16.273s5.005,2.167,7.676,5.765
						c2.813,3.789,3.274,9.105,2.325,12.715c-1.852,7.039,1.76,6.391,2.871,4.631c1.112-1.759,0.093-3.148,0.093-3.148
						s5.649,2.501,3.334,6.111c-2.314,3.613,2.037,9.91,6.668,7.225c4.63-2.685,8.202-9.373,20.391-7.899
						c-8.671,3.781-13.072,12.612-7.425,24.479c4.084,8.583,7.285,17.708-4.969,23.129
						C386.978,434.414,286.292,434.603,286.292,434.603z"/>
				</g>
			</g>
			<g>
				<path style="fill-rule:evenodd;clip-rule:evenodd;fill:#EBEBEB;" d="M76.331,453.953h28.773c2.244,0,4.079,1.736,4.079,3.859
					s-1.836,3.859-4.079,3.859H90.948c-2.243,0-4.079,1.738-4.079,3.86v0.001c0,2.122,1.835,3.859,4.079,3.859h561.129
					c2.243,0,4.079-1.737,4.079-3.859v-0.001c0-2.122-1.836-3.86-4.079-3.86h-8.849c-2.245,0-4.08-1.736-4.08-3.859
					s1.835-3.859,4.08-3.859h28.529c2.243,0,4.079-1.738,4.079-3.86l0,0c0-2.123-1.836-3.86-4.079-3.86H76.331
					c-2.244,0-4.08,1.737-4.08,3.86l0,0C72.252,452.215,74.087,453.953,76.331,453.953z"/>
			</g>
			<g>
				<path style="fill-rule:evenodd;clip-rule:evenodd;fill:#9E7D77;" d="M54.514,434.46c-2.754,0-4.986,2.636-4.986,5.887
					c0,3.251,2.232,5.886,4.986,5.886h639.062c2.753,0,4.985-2.635,4.985-5.886c0-3.251-2.232-5.887-4.985-5.887H54.514z"/>
			</g>
			<g>
				<path style="fill-rule:evenodd;clip-rule:evenodd;fill:#EAF3F2;" d="M238.124,97.108h-0.019H194.98h-44.645h-21.734
					c-5.605,0-10.19-4.586-10.19-10.191v-0.001c0-5.604,4.585-10.19,10.19-10.19h11.189c1.121-4.321,4.46-7.747,8.731-8.99
					c-0.262-1.103-0.402-2.252-0.402-3.435c0-8.171,6.625-14.796,14.796-14.796c1.554,0,3.052,0.24,4.459,0.684
					c0.39,0.11,0.772,0.234,1.149,0.373c2.513-10.573,12.016-18.437,23.358-18.437c10.133,0,18.799,6.278,22.323,15.155
					c3.524-8.877,12.189-15.155,22.322-15.155c12.434,0,22.66,9.452,23.886,21.563c0.488-0.033,0.979-0.051,1.476-0.051
					c12.076,0,21.866,9.791,21.866,21.866c0,0.411-0.011,0.819-0.034,1.224h10.521c5.605,0,10.191,4.586,10.191,10.19v0.001
					c0,5.604-4.586,10.191-10.191,10.191h-11.472h-0.019H238.124z"/>
			</g>
			<g>
				<path style="fill-rule:evenodd;clip-rule:evenodd;fill:#EAF3F2;" d="M634.106,132.048h-0.019h-43.124h-44.646h-21.734
					c-5.606,0-10.191-4.586-10.191-10.19v-0.001c0-5.604,4.586-10.19,10.191-10.19h11.188c1.121-4.321,4.462-7.747,8.731-8.991
					c-0.263-1.102-0.401-2.252-0.401-3.435c0-8.171,6.624-14.796,14.796-14.796c1.555,0,3.052,0.24,4.459,0.684
					c0.389,0.109,0.773,0.233,1.149,0.373c2.512-10.573,12.017-18.437,23.357-18.437c10.133,0,18.798,6.277,22.323,15.156
					c3.524-8.878,12.19-15.156,22.322-15.156c12.434,0,22.66,9.452,23.885,21.562c0.488-0.032,0.98-0.051,1.476-0.051
					c12.076,0,21.866,9.791,21.866,21.867c0,0.411-0.012,0.819-0.034,1.224h10.521c5.605,0,10.19,4.586,10.19,10.19v0.001
					c0,5.604-4.585,10.19-10.19,10.19h-11.472h-0.019H634.106z"/>
			</g>
		</g>
	</g>
</g>
</svg>
